<svg xmlns="http://www.w3.org/2000/svg" x="0px" y="0px"
width="24" height="24"
viewBox="0 0 192 192"
style=" fill:#000000;"><g fill="none" fill-rule="nonzero" stroke="none" stroke-width="1" stroke-linecap="butt" stroke-linejoin="miter" stroke-miterlimit="10" stroke-dasharray="" stroke-dashoffset="0" font-family="none" font-weight="none" font-size="none" text-anchor="none" style="mix-blend-mode: normal"><path d="M0,192v-192h192v192z" fill="none"></path><g fill="#95a5a6"><path d="M96,11.67188c-1.45,0 -2.90762,0.54825 -4.01562,1.65625l-18.59375,18.59375c-2.976,2.976 -0.86425,8.07812 3.34375,8.07812h38.51562c4.216,0 6.33538,-5.10212 3.35938,-8.07812l-18.59375,-18.59375c-1.108,-1.108 -2.56562,-1.65625 -4.01562,-1.65625zM32,56c-2.88509,-0.0408 -5.56865,1.475 -7.0231,3.96698c-1.45445,2.49198 -1.45445,5.57405 0,8.06603c1.45445,2.49198 4.13801,4.00779 7.0231,3.96698h128c2.88509,0.0408 5.56865,-1.475 7.0231,-3.96698c1.45445,-2.49198 1.45445,-5.57405 0,-8.06603c-1.45445,-2.49198 -4.13801,-4.00779 -7.0231,-3.96698zM32,88c-2.88509,-0.0408 -5.56865,1.475 -7.0231,3.96698c-1.45445,2.49198 -1.45445,5.57405 0,8.06603c1.45445,2.49198 4.13801,4.00779 7.0231,3.96698h128c2.88509,0.0408 5.56865,-1.475 7.0231,-3.96698c1.45445,-2.49198 1.45445,-5.57405 0,-8.06603c-1.45445,-2.49198 -4.13801,-4.00779 -7.0231,-3.96698zM32,120c-2.88509,-0.0408 -5.56865,1.475 -7.0231,3.96698c-1.45445,2.49198 -1.45445,5.57405 0,8.06603c1.45445,2.49198 4.13801,4.00779 7.0231,3.96698h128c2.88509,0.0408 5.56865,-1.475 7.0231,-3.96698c1.45445,-2.49198 1.45445,-5.57405 0,-8.06603c-1.45445,-2.49198 -4.13801,-4.00779 -7.0231,-3.96698zM76.73438,152c-4.208,0 -6.31975,5.10213 -3.34375,8.07813l18.59375,18.59374c2.216,2.216 5.81525,2.216 8.03125,0l18.59375,-18.59374c2.976,-2.976 0.85662,-8.07813 -3.35938,-8.07813z"></path></g></g></svg>