<?xml version="1.0" encoding="utf-8"?>
<!-- Generator: Adobe Illustrator 16.0.0, SVG Export Plug-In . SVG Version: 6.00 Build 0)  -->
<!DOCTYPE svg PUBLIC "-//W3C//DTD SVG 1.1//EN" "http://www.w3.org/Graphics/SVG/1.1/DTD/svg11.dtd">
<svg version="1.1" id="Layer_1" xmlns="http://www.w3.org/2000/svg" xmlns:xlink="http://www.w3.org/1999/xlink" x="0px" y="0px"
	 width="432px" height="288px" viewBox="0 0 432 288" enable-background="new 0 0 432 288" xml:space="preserve">
<g>
	<path fill="#153DD1" d="M279.266,105.174c-0.344-1.23-0.525-2.531-0.525-3.867c0-7.938,6.436-14.385,14.385-14.385
		c6.058,0.003,11.235,3.753,13.359,9.056c0.426-1.699,0.836-2.439,0.836-2.439c0.715-1.421,1.565-2.71,2.591-3.823
		c3.619-3.977,9.089-5.991,16.268-5.991c1.106,0,2.306,0.037,3.612,0.096c1.28,0.059,2.642,0.146,4.122,0.267
		c4.012,0.312,7.161,3.72,7.161,7.743v11.089c0,0.794-0.145,1.548-0.363,2.273h15.188c3.724,0,6.932,2.639,7.635,6.299l1.077,5.583
		l1.024-5.539c0.696-3.685,3.912-6.343,7.639-6.343h14.954c2.391,0,4.6,1.069,6.091,2.943c1.495,1.898,2.024,4.31,1.462,6.637
		l-16.597,69.814c-1.896,7.814-4.638,13.156-8.4,16.348c-3.935,3.346-9.396,4.967-16.701,4.967c-1.055,0-2.121-0.054-3.19-0.146
		c-1.021-0.083-2.124-0.224-3.223-0.399c-3.786-0.596-6.543-3.828-6.543-7.672v-11.029c0-4.215,3.379-7.662,7.575-7.764
		l-11.961-48.012c-0.514,0.256-1.055,0.475-1.628,0.615v45.287c0,4.287-3.479,7.772-7.761,7.772l-14.839-0.005
		c-2.705,0-5.092-1.396-6.477-3.492c-1.392,2.097-3.771,3.492-6.479,3.492h-13.755l-0.2,1.051c-0.732,3.611-2.072,6.826-3.967,9.534
		c-2.469,3.677-6.169,6.539-10.958,8.41c-4.189,1.64-9.141,2.461-14.714,2.461c-7.993,0-14.421-1.758-19.117-5.216
		c-5.311-3.906-8.175-9.751-8.289-16.885c-0.022-1.016,0.174-2.022,0.54-2.964c-4.818,3.516-11.369,5.313-19.536,5.313
		c-4.893-0.004-9.156-0.668-12.683-1.979c-2.742-1.014-5.159-2.47-7.261-4.296c-1.221,2.681-3.908,4.552-7.053,4.552h-14.662
		c-1.259,0-2.424-0.322-3.479-0.85c-1.048,0.527-2.221,0.854-3.472,0.854h-14.671c-4.291,0-7.777-3.486-7.777-7.768v-15.083
		c-4.748,3.545-11.061,5.368-18.941,5.368c-7.514,0-13.602-1.682-18.273-4.929c-1.283,5.925-3.573,10.825-6.886,14.634
		c-5.661,6.513-14.025,9.823-24.864,9.823c-4.922,0-9.318-0.688-13.066-2.035c-4.043-1.46-7.574-3.766-10.503-6.841
		c-3.808-3.913-6.526-9.236-8.005-15.769C36.639,156.16,36,146.792,36,133.286c0-9.06,0.374-16.435,1.121-21.914
		c0.836-6.237,2.221-10.956,4.234-14.414c3.025-5.186,6.935-9.037,11.639-11.472c4.496-2.313,10.054-3.49,16.537-3.49
		c10.906,0,19.195,3.164,24.632,9.396c0.74,0.847,1.413,1.766,2.05,2.717c4.885-6.511,12.708-9.843,23.342-9.839
		c8.021,0,14.443,1.893,19.227,5.591c0.871-3.332,3.883-5.808,7.492-5.808h14.672c1.258,0,2.424,0.324,3.479,0.852
		c1.047-0.527,2.213-0.852,3.471-0.852h14.67c4.285,0,7.771,3.479,7.771,7.771v17.263c1.869-1.392,3.956-2.549,6.276-3.43
		c3.838-1.45,8.322-2.188,13.322-2.188c4.951,0,9.4,0.811,13.201,2.402c3.875,1.626,7.157,4.108,9.784,7.354
		c4.016-6.284,10.606-9.756,18.84-9.756c3.801,0,7.221,0.755,10.214,2.241c0.881-0.344,1.832-0.527,2.802-0.527h12.345
		L279.266,105.174L279.266,105.174z"/>
	<path fill="#FFFFFF" d="M79.242,146.478h15.389c0,0.374,0.016,0.91,0.058,1.633c0.03,0.711,0.052,1.275,0.052,1.678
		c0,9.822-2.064,17.109-6.202,21.872c-4.132,4.763-10.475,7.141-19.007,7.141c-4.043,0-7.516-0.522-10.422-1.571
		c-2.908-1.051-5.405-2.678-7.5-4.883c-2.871-2.944-4.893-6.993-6.072-12.134c-1.18-5.151-1.766-14.124-1.766-26.919
		c0-8.75,0.344-15.713,1.047-20.881c0.696-5.164,1.78-9.017,3.254-11.555c2.277-3.9,5.111-6.725,8.496-8.471
		c3.375-1.742,7.697-2.614,12.963-2.614c8.605,0,14.867,2.242,18.779,6.729c3.917,4.485,5.896,11.699,5.932,21.624H78.905v-2.044
		c0-4.595-0.747-8.027-2.233-10.283c-1.486-2.263-3.758-3.394-6.811-3.394c-3.786,0-6.373,1.563-7.75,4.688
		c-1.384,3.123-2.072,11.768-2.072,25.923c0,15.3,0.674,24.602,2.014,27.915c1.347,3.311,3.912,4.963,7.705,4.963
		c3.522,0,5.99-1.296,7.39-3.889c1.392-2.593,2.095-7.383,2.095-14.37V146.478L79.242,146.478z"/>
	<path fill="#FFFFFF" d="M96.58,125.692c0-12.869,1.646-21.703,4.966-26.48c3.303-4.78,9.133-7.168,17.481-7.168
		c8.379,0,14.23,2.393,17.533,7.171c3.32,4.782,4.975,13.608,4.975,26.478c0,12.87-1.654,21.688-4.967,26.449
		c-3.311,4.758-9.155,7.141-17.533,7.141c-8.349-0.002-14.18-2.383-17.489-7.143C98.234,147.379,96.58,138.56,96.58,125.692
		L96.58,125.692z M111.689,125.025v1.494c0.008,9.896,0.505,15.938,1.494,18.149c0.996,2.204,2.9,3.311,5.734,3.311
		c2.938,0,4.93-1.04,5.962-3.121c1.025-2.072,1.546-7.471,1.546-16.186v-2.601v-3.633c-0.008-8.349-0.535-13.602-1.582-15.754
		c-1.041-2.153-2.988-3.224-5.816-3.224c-2.797,0-4.717,0.982-5.764,2.952c-1.047,1.968-1.574,6.702-1.574,14.201V125.025
		L111.689,125.025z"/>
	<polygon fill="#FFFFFF" points="145.402,176.766 145.395,91.817 160.071,91.817 160.071,176.766 145.402,176.766 	"/>
	<polygon fill="#FFFFFF" points="168.738,176.766 168.73,91.817 183.408,91.817 183.415,176.766 168.738,176.766 	"/>
	<path fill="#FFFFFF" d="M217.979,154.871h13.899c0,0.3,0.016,0.718,0.06,1.27c0.029,0.555,0.052,0.957,0.052,1.216
		c0,7.276-1.735,12.617-5.207,16.018c-3.481,3.406-8.989,5.11-16.527,5.11c-3.967,0-7.302-0.504-9.98-1.499
		c-2.688-0.992-4.893-2.529-6.621-4.63c-2.064-2.461-3.516-5.576-4.367-9.323c-0.832-3.752-1.258-10.498-1.266-20.243
		c0-7.76,0.375-13.312,1.107-16.658c0.74-3.345,1.983-6.086,3.748-8.218c1.84-2.204,4.234-3.867,7.198-4.987
		c2.96-1.126,6.483-1.688,10.562-1.688c3.941,0.003,7.328,0.596,10.186,1.792c2.846,1.199,5.214,3.008,7.086,5.435
		c1.577,2.136,2.705,4.81,3.394,8.027c0.682,3.221,1.018,8.413,1.018,15.583v4.852h-29.014c-0.073,0.474-0.122,0.986-0.137,1.516
		c-0.022,0.535-0.03,1.39-0.03,2.568c0,6.064,0.563,10.32,1.685,12.739c1.128,2.432,3.023,3.645,5.706,3.645
		c2.613,0,4.504-0.98,5.685-2.951C217.391,162.477,217.979,159.282,217.979,154.871L217.979,154.871z M203.139,136.775l14.341,0.005
		v-2.703c0-4.379-0.533-7.397-1.599-9.052c-1.066-1.648-2.942-2.479-5.625-2.479c-2.613,0-4.475,0.853-5.573,2.566
		c-1.106,1.706-1.654,4.694-1.654,8.962C203.103,135.289,203.139,136.189,203.139,136.775L203.139,136.775z"/>
	<path fill="#FFFFFF" d="M278.792,171.701c0,5.625-0.267,9.736-0.799,12.33c-0.529,2.593-1.443,4.804-2.724,6.645
		c-1.665,2.467-4.134,4.341-7.42,5.631c-3.29,1.278-7.261,1.922-11.887,1.922c-6.328,0-11.172-1.23-14.51-3.694
		c-3.35-2.467-5.063-6.051-5.129-10.753h14.613c0.118,1.245,0.637,2.223,1.573,2.92c0.939,0.703,2.234,1.049,3.882,1.049
		c2.798,0,4.763-0.858,5.884-2.563c1.117-1.713,1.684-4.848,1.684-9.405v-4.417c-1.254,2.395-2.879,4.175-4.877,5.355
		c-2.018,1.171-4.411,1.764-7.209,1.764c-6.284,0-10.677-2.378-13.182-7.148c-2.506-4.762-3.753-13.689-3.753-26.777
		c0-12.43,1.27-21.094,3.805-25.979c2.538-4.892,6.876-7.338,13.015-7.338c3.135,0,5.777,0.7,7.953,2.095
		c2.161,1.398,3.853,3.499,5.069,6.291v-6.673h14.011V171.701L278.792,171.701z M256.722,123.428c-2.605,0-4.385,1.287-5.344,3.839
		c-0.962,2.557-1.429,8.774-1.429,18.672c0,8.64,0.474,14.143,1.466,16.521c0.966,2.373,2.746,3.554,5.314,3.554
		c2.945,0,4.958-1.384,6.043-4.162c1.084-2.773,1.628-9.807,1.628-21.098c0-7.063-0.551-11.715-1.636-13.955
		C261.681,124.559,259.675,123.428,256.722,123.428L256.722,123.428z"/>
	<polygon fill="#FFFFFF" points="285.779,176.771 285.771,112.954 300.441,112.954 300.448,176.774 285.779,176.771 	"/>
	<path fill="#FFFFFF" d="M312.513,176.774v-52.84h-5.743v-10.98h5.743v-6.34c0-5.48,1.04-9.37,3.134-11.67
		c2.103-2.3,5.61-3.447,10.54-3.447c0.995,0,2.079,0.027,3.26,0.086c1.17,0.051,2.454,0.135,3.86,0.246v11.089
		c-0.186,0-0.44-0.02-0.77-0.056c-0.337-0.036-0.56-0.052-0.674-0.052c-1.621,0-2.769,0.327-3.472,0.989
		c-0.695,0.659-1.047,1.751-1.047,3.252v5.905h5.962v10.978h-5.962l0.007,52.846L312.513,176.774L312.513,176.774z"/>
	<path fill="#FFFFFF" d="M348.897,197.683v-11.029c0.292,0,0.61,0.004,0.939,0.027c0.329,0.015,0.811,0.03,1.433,0.03
		c2.098,0,3.619-0.341,4.577-1.025c0.963-0.679,1.437-1.772,1.437-3.28c0-0.479-0.056-1.052-0.167-1.71
		c-0.111-0.664-0.255-1.309-0.44-1.934l-16.383-65.805l15.605,0.005l8.834,46.055l8.541-46.055h14.946l-16.593,69.828
		c-1.474,6.068-3.431,10.142-5.877,12.218c-2.446,2.079-6.336,3.119-11.668,3.119c-0.811,0-1.64-0.039-2.51-0.107
		C350.707,197.942,349.814,197.829,348.897,197.683L348.897,197.683z"/>
	<path fill="#153DD1" d="M148.192,109.154c0,0,4.3-0.696,4.674-0.771c0.382-0.073,0.858-0.695,1.554-0.834
		c0.711-0.146,1.807-0.374,2.014-0.281c0.203,0.093,0.3,0.508,0.899,0.508c0.61,0,6.124-1.064,6.124-1.064l0.053,0.605l-6.373,0.977
		l-0.703,0.464c0,0-0.559,0.791-0.807,1.021c-0.248,0.235-0.548,0.378-0.703,0.466c-0.145,0.096-0.447,0.145-0.447,0.145
		s-0.101,1.255,0.044,1.49c0.155,0.227,0.703,1.391,0.755,1.625c0.052,0.229,0.951,1.208,0.951,1.208l3.02,4.051
		c0,0,0.152,0.322,0.455,0.322c0.3,0,0.906,0,1.499,0c0.61,0,1.362,0.796,1.51,0.931c0.147,0.139,0.455,0.695,0.455,0.695
		l0.403,0.931c0,0,0.3,0.425,0.444,0.425c0.155,0,0.455,0.043,0.763,0c0.292-0.052,0.747-0.33,0.995-0.513
		c0.251-0.19,0.603-0.979,0.603-1.26c0-0.278,0.049-0.652,0-0.788c-0.044-0.142-0.646-0.649-0.646-0.649s-0.256-0.519-0.256-0.655
		c0-0.142,0.3-0.415,0.3-0.415s0.251-0.466,0.251-0.656c0-0.184,0.308-0.882,0.352-1.069c0.049-0.184,0.504-0.747,0.711-0.975
		c0.196-0.234,0.344-0.649,0.3-0.791c-0.052-0.142-0.807-0.747-0.807-0.747l-0.899-0.698l-0.711-0.371c0,0,3.213,0.371,4.371,0.513
		c1.158,0.139,1.605,0.234,2.006,0.374c0.402,0.139,0.807,0.93,0.858,1.071c0.052,0.137,0.703,0.232,0.899,0.232
		c0.207,0,0.703,0.461,0.703,0.645c0,0.188,0.507,0.563,0.507,0.563s-0.204,1.909-0.204,2.277c0,0.374,0.352,1.531,0.1,1.771
		c-0.247,0.234-0.703,0-0.703-0.142s0.26-1.255,0.26-1.489s0.041-1.113,0.041-1.348s0-0.93,0-0.93s-0.145-0.426-0.4-0.426
		c-0.252,0-1.105,0-1.35,0c-0.256,0-0.556,0.426-0.556,0.657c0,0.235,0,0.742,0,0.977c0,0.229-0.255,0.605-0.403,0.791
		c-0.145,0.186-0.404,0.374-0.404,0.557c0,0.19,0,1.025,0,1.025s-0.299,0.608-0.502,1.255c-0.2,0.654-0.338,0.76-0.56,1.038
		c-0.233,0.278-0.381,0.38-0.263,0.695c0.111,0.314,1.047,2.058,1.092,2.336c0.037,0.279,0.973,0.946,1.129,1.155
		c0.151,0.205,1.465,0.728,1.465,0.728s0.907,0.601,1.018,0.666c0.115,0.071,1.437,1.497,1.844,2.301
		c0.418,0.806,0.647,2.233,0.647,2.341c0,0.098,0.263,2.698,0.263,3.719c0,1.024,0.096,3.72,0.096,3.856c0,0.147,0.4,4.38,0.4,4.609
		c0,0.239,0.507,2.745,0.507,3.025c0,0.278,0.155,2.651,0.155,2.796c0,0.139-0.052,0.507-0.207,0.601
		c-0.145,0.09-0.651,0.278-0.651,0.461c0,0.192-0.052,0.889-0.052,0.889l-0.548,0.459c0,0,0.1-0.923,0.1-1.113
		c0-0.183-0.555-0.695-0.555-0.695l-0.951,0.043l-0.403-0.326l-0.755,0.048l-0.6,0.325c0,0-0.2,1.86-0.2,2.744
		c0,0.886,0.148,3.12,0.148,3.254c0,0.145-0.104,5.12-0.104,5.682c0,0.557,0,1.721,0,1.955c0,0.227-0.248,2.925-0.248,3.299
		c0,0.371-0.104,2.231-0.156,2.373c-0.044,0.143-0.247,1.631-0.402,1.999c-0.145,0.371-0.6,0.562-0.796,0.562
		c-0.2,0-0.651-0.139-0.755,0.047c-0.096,0.188-0.248,0.883-0.447,0.883c-0.204,0-0.504,0.185-0.652-0.051
		c-0.154-0.227-0.506-0.601-0.658-0.645c-0.148-0.051-0.447-0.096-0.858,0.044c-0.396,0.142-0.796,0.836-0.796,0.836
		s-0.148,0.461,0.145,0.979c0.3,0.517,1.106,2.143,0.755,2.649c-0.345,0.509-1.802,0.7-2.153,0.509
		c-0.359-0.181-1.51-2.091-1.362-2.461c0.155-0.371,0.403-1.215,0.403-1.724c0-0.51,0.052-0.744-0.104-1.023
		c-0.145-0.282-0.396-0.555-0.396-0.738c0-0.191,0-0.891,0-1.025c0-0.14-0.255-0.469-0.255-0.469l-0.747-0.371
		c0,0-0.404,0.143-0.763,0.143c-0.345,0-0.703-0.143-0.703-0.143s-0.444,0-0.593,0.049c-0.154,0.043-1.105,1.392-1.31,1.764
		c-0.2,0.375-1.706,0.883-2.009,0.883c-0.301,0-1.507-0.047-1.758-0.464c-0.248-0.419-0.907-0.601,0.499-1.069
		c1.413-0.462,1.765-1.07,2.161-1.436c0.403-0.381,0.6-1.03,0.6-1.266c0-0.229-0.447-0.412-0.447-0.412s-0.408-0.146-0.408-0.373
		c0-0.234,0-0.652,0-0.791c0-0.14-0.199-0.33-0.295-0.461c-0.101-0.148-0.652-0.283-0.9-0.283c-0.255,0-0.506,0.18-0.65,0
		c-0.156-0.187-0.359-0.465-0.359-0.465l0.152-0.791c0,0,0.303-4.907,0.303-6.232c0-1.326,0-2.305,0-2.656
		c0-0.347-1.055-3.069-1.055-4.609c0-1.528,0.145-7.6,0.145-8.086c0-0.491,0.307-2.79,0.373-3.068
		c0.082-0.278,0.382-1.121,0.164-1.261c-0.23-0.139-0.463-0.562-0.837-0.417c-0.374,0.142-0.522,0.769-1.055,0.769
		c-0.522,0-1.055,0-1.055,0s-0.529,0.418-0.829,0.418s-0.755-0.285-0.898-0.63c-0.156-0.35-0.382-0.77-0.382-1.118
		c0-0.347,0.155-1.605,0.155-1.605s0.145-4.184,0.145-5.092c0-0.91-0.145-3.625,0.082-4.465c0.218-0.837,0.599-5.439,0.828-5.788
		c0.227-0.354,0.3-1.538,0.3-1.89c0-0.35-0.381-1.187-0.381-1.466c0-0.278-0.148-0.907-0.148-1.325c0-0.417-0.073-0.696-0.151-1.113
		c-0.074-0.417-0.381-1.187-0.447-1.538c-0.082-0.345-0.156-0.977-0.082-1.323c0.082-0.352,0.381-0.837,0.681-1.116
		c0.3-0.28,0.456-0.49,0.456-0.907c0-0.423,0.291-0.908,0-1.048c-0.308-0.139-0.756-0.209-0.756-0.209s-1.28,0.209-2.19,0.283
		c-0.899,0.065-1.802,0.271-1.802,0.271l-0.382-0.205L148.192,109.154L148.192,109.154z"/>
	<path fill="#FFFFFF" d="M300.367,101.31c0,3.996-3.242,7.243-7.242,7.243c-4.008,0-7.25-3.251-7.25-7.246
		c0-4.009,3.242-7.25,7.25-7.249C297.125,94.058,300.367,97.303,300.367,101.31L300.367,101.31z"/>
</g>
</svg>


