<?xml version="1.0"?>
<svg xmlns="http://www.w3.org/2000/svg" viewBox="0 0 64 64" width="512px" height="512px" class=""><g><g id="Lock_package" data-name="Lock package"><polygon points="53 17 46 3 31 3 33 17 53 17" style="fill:#F6E9E9" data-original="#B1D5FF" class="active-path" data-old_color="#F6E8E8"/><polygon points="25 3 10 3 3 17 23 17 25 3" style="fill:#F6E9E9" data-original="#B1D5FF" class="active-path" data-old_color="#F6E8E8"/><circle cx="49" cy="49" r="3" style="fill:#F6E9E9" data-original="#B1D5FF" class="active-path" data-old_color="#F6E8E8"/><circle cx="49" cy="49" r="3" style="fill:#F6E9E9" data-original="#B1D5FF" class="active-path" data-old_color="#F6E8E8"/><polygon points="33 17 33 33 23 33 23 17 3 17 3 57 37 57 37 41 41 41 53 41 53 17 33 17" style="fill:#F6E9E9" data-original="#B1D5FF" class="active-path" data-old_color="#F6E8E8"/><path d="M53.992,16.961a1,1,0,0,0-.061-.3c-.009-.022-.014-.044-.023-.066s-.007-.025-.013-.037l-7-14A1,1,0,0,0,46,2H10a1,1,0,0,0-.895.553l-7,14c-.006.012-.007.025-.013.037s-.014.044-.023.066a1,1,0,0,0-.061.3c0,.014-.008.025-.008.039V57a1,1,0,0,0,1,1H33a1,1,0,0,0,0-2H4V18H22V33a1,1,0,0,0,1,1H33a1,1,0,0,0,1-1V18H52V28.08a1,1,0,0,0,2,0V17C54,16.986,53.993,16.975,53.992,16.961ZM25.867,4h4.266l1.714,12H24.153ZM10.618,4H23.847L22.133,16H4.618ZM32,32H24V18h8Zm1.867-16L32.153,4H45.382l6,12Z" style="fill:#C4183C" data-original="#1E81CE" class="" data-old_color="#FF0077"/><path d="M17,48H9a1,1,0,0,1,0-2h8a1,1,0,0,1,0,2Z" style="fill:#C4183C" data-original="#1E81CE" class="" data-old_color="#FF0077"/><path d="M17,52H9a1,1,0,0,1,0-2h8a1,1,0,0,1,0,2Z" style="fill:#C4183C" data-original="#1E81CE" class="" data-old_color="#FF0077"/><path d="M17,44H9a1,1,0,0,1,0-2h8a1,1,0,0,1,0,2Z" style="fill:#C4183C" data-original="#1E81CE" class="" data-old_color="#FF0077"/><path d="M61,40H58V39a9,9,0,0,0-18,0v1H37a1,1,0,0,0-1,1V61a1,1,0,0,0,1,1H61a1,1,0,0,0,1-1V41A1,1,0,0,0,61,40ZM42,39a7,7,0,0,1,14,0v1H42ZM60,60H38V42H60Z" style="fill:#C4183C" data-original="#1E81CE" class="" data-old_color="#FF0077"/><path d="M53,49a4,4,0,1,0-5,3.858V57a1,1,0,0,0,2,0V52.858A4,4,0,0,0,53,49Zm-4,2a2,2,0,1,1,2-2A2,2,0,0,1,49,51Z" style="fill:#C4183C" data-original="#1E81CE" class="" data-old_color="#FF0077"/><path d="M23,44H21a1,1,0,0,1,0-2h2a1,1,0,0,1,0,2Z" style="fill:#C4183C" data-original="#1E81CE" class="" data-old_color="#FF0077"/><path d="M23,48H21a1,1,0,0,1,0-2h2a1,1,0,0,1,0,2Z" style="fill:#C4183C" data-original="#1E81CE" class="" data-old_color="#FF0077"/><path d="M23,52H21a1,1,0,0,1,0-2h2a1,1,0,0,1,0,2Z" style="fill:#C4183C" data-original="#1E81CE" class="" data-old_color="#FF0077"/></g></g> </svg>
