<svg width="113" height="104" viewBox="0 0 113 104" fill="none" xmlns="http://www.w3.org/2000/svg">
<path d="M0 51.275C0 22.466 26.598 4.913 30.729 2.725C33.721 1.095 36.491 -2.05994e-07 38.389 -2.05994e-07C40.042 -2.05994e-07 41.136 0.804 41.136 2.189C41.136 3.573 39.751 5.204 38.389 6.298C34.57 9.045 23.85 23.315 23.85 36.759C23.85 40.31 25.771 43.593 27.959 44.709C30.438 46.071 41.961 48.55 41.961 63.066C41.961 71.575 35.105 78.966 25.502 78.966C12.886 78.967 0 69.387 0 51.275Z" transform="translate(12 13)" fill="#716ACA"/>
<path d="M-6.10352e-08 51.275C-6.10352e-08 22.466 26.621 4.913 30.73 2.725C33.746 1.095 36.492 -2.05994e-07 38.412 -2.05994e-07C40.064 -2.05994e-07 41.137 0.804 41.137 2.189C41.137 3.573 39.776 5.204 38.412 6.298C34.572 9.045 23.875 23.315 23.875 36.759C23.875 40.31 25.795 43.593 27.984 44.709C30.463 46.072 41.986 48.55 41.986 63.067C41.986 71.576 35.107 78.967 25.504 78.967C12.908 78.967 -6.10352e-08 69.387 -6.10352e-08 51.275Z" transform="translate(60.0139 13)" fill="#716ACA"/>
</svg>
